<?xml version="1.0" encoding="utf-8"?>
<!-- Generator: Adobe Illustrator 21.0.0, SVG Export Plug-In . SVG Version: 6.00 Build 0)  -->
<svg version="1.1" id="图层_1" xmlns="http://www.w3.org/2000/svg" xmlns:xlink="http://www.w3.org/1999/xlink" x="0px" y="0px"
	 viewBox="0 0 595.3 841.9" style="enable-background:new 0 0 595.3 841.9;" xml:space="preserve">
<style type="text/css">
	.st0{fill:#1F1F1F;}
	.st1{fill:#8E2D2C;}
	.st2{fill:#4EB9EB;}
</style>
<path id="XMLID_27_" class="st0" d="M563.6,139.1c0,28.4,0,56.4,0,84.9c-146,0-291.7,0-437.8,0c0,33.1,0,65.7,0,99
	c101.4,0,202.9,0,304.6,0c0,90.2,0,179.7,0,269.6c-98.1,0-196.3,0-294.9,0c0-28.1,0-56.3,0-84.9c69.8,0,139.3,0,209.3,0
	c0-33.1,0-65.7,0-99c-101.4,0-202.9,0-304.7,0c0-90.2,0-179.7,0-269.6C214.4,139.1,388.8,139.1,563.6,139.1z"/>
<path id="XMLID_26_" class="st1" d="M563.7,600.2c0,29,0,56.8,0,85.2c-174.4,0-348.8,0-523.5,0c0-89.5,0-179.2,0-269.1
	c98.2,0,196.2,0,294.7,0c0,28.1,0,56.3,0,84.9c-69.6,0-139.1,0-209.2,0c0,33.1,0,65.7,0,99.1C271.5,600.2,417.3,600.2,563.7,600.2z"
	/>
<path id="XMLID_25_" class="st2" d="M563.7,231.9c0,28.3,0,56.2,0,84.7c-12.3,0-24.6,0-37.6,0c0,92.4,0,184,0,276.1
	c-28.7,0-56.7,0-85.4,0c0-91.6,0-183.3,0-275.6c-102.1,0-203.6,0-305.3,0c0-28.7,0-56.7,0-85.1C278,231.9,420.6,231.9,563.7,231.9z"
	/>
</svg>
