<?xml version="1.0" encoding="utf-8"?>
<!-- Generator: Adobe Illustrator 21.0.0, SVG Export Plug-In . SVG Version: 6.00 Build 0)  -->
<svg version="1.1" id="Layer_1" xmlns="http://www.w3.org/2000/svg" xmlns:xlink="http://www.w3.org/1999/xlink" x="0px" y="0px"
	 viewBox="0 0 500 500" style="enable-background:new 0 0 500 500;" xml:space="preserve">
<style type="text/css">
	.st0{fill:#043A92;}
	.st1{fill:#017C6B;}
</style>
<path class="st0" d="M332.6,415.6c-15-16.7-32.3-30.5-45.9-47.9c-15.5-19.8-14.8-49.7,0.3-70.3c10.9-14.8,26.3-21.9,43.7-22.9
	c15.3-0.8,30,3.6,41.4,15.1c12.6,12.5,24.9,25.4,37.8,37.6c5,4.7,4.4,7.2-0.3,11.2c-5.8,5.1-11.3,10.6-16.4,16.4
	c-3.5,4-5.6,4-9.4,0.1c-11.5-12-23.4-23.6-35.2-35.4c-9.3-9.4-21.7-10.5-29.8-1.8c-9.1,9.8-8.7,21.3,0.5,31
	c11.7,12.2,23.7,24.2,35.9,35.9c3.6,3.5,3.3,5.2-0.1,8.4C347.5,400.1,340.3,407.8,332.6,415.6z"/>
<path class="st0" d="M112.3,141.4c13.6,13.7,26.8,27.2,40.2,40.4c6.9,6.8,16.8,8.3,24.9,4.4c8.5-4.1,12.1-11.1,11.6-21.4
	c-0.3-4.7-2.8-7.8-5.8-10.8c-12.2-12.1-24.1-24.5-36.6-36.3c-4.6-4.3-4.1-6.7,0.2-10.6c6.3-5.7,12.3-12,17.8-18.5
	c2.1-2.5,4-2.5,5.4-0.8c16.7,18.9,39.2,32.7,50.8,56c16.6,33.4-5.7,74.5-41.2,80.9c-22.1,4-39.7-2.9-55.1-17.5
	c-12.2-11.6-23.9-23.9-35.9-35.8c-2.5-2.5-3.8-3.3,0.3-6.7C97.3,157.8,104.4,149.4,112.3,141.4z"/>
<path class="st0" d="M389.7,141.3c7.5,7.7,14.9,15.3,22.3,22.9c1.5,1.6,3.9,3,1.1,5.5c-16.4,15.4-30.4,33.6-48.8,46.8
	c-32.2,23.1-82.7,2.1-88-39.1c-2.8-21.5,4-38.5,17.6-53.5c10.7-11.9,22.7-22.7,33.9-34.2c3.6-3.8,6.2-3.9,9.8,0
	c6,6.5,12.3,12.8,18.9,18.8c3.5,3.2,2.9,5.1-0.2,8.1c-11.4,11.2-22.9,22.2-34.6,33c-9.4,8.7-11.1,18.2-6.7,27.3
	c6.4,13.2,23.5,15.5,34.8,4.4C363,168.3,376,155,389.7,141.3z"/>
<path class="st0" d="M167.3,415.5c-6.6-6.7-13.1-13.2-19.4-19.8c-6.8-7-6.8-9.5,1.1-15.2c13-9.5,23.3-21.9,34.5-33.2
	c6-6.1,7.9-14.3,3.9-22.6c-4-8.5-13-13.5-22-12.6c-6.6,0.7-11.2,4.9-15.6,9.2c-11.1,10.8-22.2,21.6-32.7,32.9
	c-4.3,4.6-7.2,3.9-10.8-0.1c-6.6-7.4-14.9-13.3-20.4-21.7c6.5-6.8,13-13.6,19.7-20.3c10.4-10.4,20.2-21.8,33-29.4
	c34.6-20.6,80.9,0.2,86.8,40.9c3,21.2-3.2,38.3-18.7,52.8C193.2,388.9,180.5,402.2,167.3,415.5z"/>
<path class="st1" d="M375.3,269c-15.5,0-31,0-46.4,0c-13.7,0-20.3-5.6-21.3-16.3c-1.4-16.1,8.2-21.1,20.4-21.4
	c33-0.6,65.9-0.2,98.9-0.3c4.3,0,5.7,1.1,3.8,5.5c-4,8.9-4.1,18.1,0,27c2.6,5.7-0.9,5.5-4.7,5.4C409.1,269,392.2,269,375.3,269z"/>
<path class="st1" d="M232,69c12,4.5,22.3,6.6,33.4,1.1c6.2-3.1,4.4,3.2,4.4,5.8c0.1,28.7,0.2,57.3,0,86c0,6.7,1.1,13.5-1.6,20.2
	c-3.6,8.9-10.7,12.6-22.5,11.2c-7.1-0.8-13.5-7.8-13.6-16C231.8,141.5,232,105.7,232,69z"/>
<path class="st1" d="M269.8,375.2c0,16.6-0.1,33.2,0,49.9c0,4.7-0.2,6.7-6.2,4.5c-8.8-3.3-18-4.2-27,0.4c-5.2,2.6-4.7-1.7-4.7-4.8
	c0-20.6,0-41.3,0-61.9c0-12.3,0-24.6,0-37c0-11.7,7.1-19.4,18.1-19.6c11.6-0.2,19.6,7.4,19.7,19.4
	C270,342.6,269.8,358.9,269.8,375.2z"/>
<path class="st1" d="M125.2,269c-16.3,0-32.7-0.1-49,0.1c-5.2,0.1-7.3-0.5-4.7-6.6c3.6-8.2,3.3-17.2-0.3-25.5
	c-2.2-5.1-0.4-5.8,4.1-5.8c32.7,0.1,65.3-0.1,98,0.1c13,0.1,20.8,7.9,20.7,19.4C194,262,185.8,269,172.5,269
	C156.7,269,141,269,125.2,269z"/>
<path class="st1" d="M251.2,14.3c14.9,0,25.8,10.9,25.4,25.5c-0.4,14.6-12.4,25.6-24.9,26c-15.5,0.6-26.7-11.2-26.7-27
	C225.1,24.6,236,14.3,251.2,14.3z"/>
<path class="st1" d="M65,251.2c0,14.2-10.7,24.6-25.2,24.6c-14.4,0-26.6-11.5-26.3-25.6c0.3-15.6,15.4-26.4,25.9-26.2
	C54.7,224.3,67.4,238,65,251.2z"/>
<path class="st1" d="M251,435.9c14.9,0,25.9,10.6,25.6,25.1c-0.3,14-10.2,25-24.6,26.3c-14.6,1.3-27-11.5-27-26.7
	C225.1,446.3,236,436,251,435.9z"/>
<path class="st1" d="M436.8,250c0-14.6,10.4-25.7,24.1-25.7c15.3,0,25.8,10.6,25.8,25.9c0,15-10.4,25.7-25.1,25.7
	C445.6,275.9,436.7,266.7,436.8,250z"/>
</svg>
